Coordinates
version=1
nRows=17
nColumns=23
inDegrees=yes

Units are S.I. units (second, meters, Newtons, ...)
If the header above contains a line with 'inDegrees', this indicates whether rotational values are in degrees (yes) or radians (no).

endheader
time	pelvis_tilt	pelvis_list	pelvis_rotation	pelvis_tx	pelvis_ty	pelvis_tz	hip_flexion_r	hip_adduction_r	hip_rotation_r	knee_angle_r	knee_angle_r_beta	ankle_angle_r	subtalar_angle_r	mtp_angle_r	hip_flexion_l	hip_adduction_l	hip_rotation_l	knee_angle_l	knee_angle_l_beta	ankle_angle_l	subtalar_angle_l	mtp_angle_l
      7.50000000	     -7.40034835	     -3.20039852	     -8.92249174	      2.22398121	      0.95485041	      1.08886952	     33.80918788	      8.82294598	     -2.39419466	     46.05024101	      0.80372833	     15.76976852	     -5.35486847	      0.00000000	     15.10110248	     -8.46149537	     -8.85250486	    112.18942742	      1.95807489	     -6.69228364	    -11.46007469	      0.00000000
      7.50666667	     -7.66489575	     -3.36818107	     -8.54118230	      2.22172831	      0.95238776	      1.08844353	     32.81619812	      8.73275115	     -2.35559931	     47.27710327	      0.82514111	     18.10143717	     -5.07994404	      0.00000000	     18.49320008	     -9.14622952	     -7.57799259	    114.39820809	      1.99662539	     -5.66980489	    -10.15276804	      0.00000000
      7.51333333	     -7.73994690	     -3.40244090	     -8.25621838	      2.21973023	      0.95086187	      1.08797981	     31.33936074	      8.53008270	     -2.13572219	     48.04689143	      0.83857645	     20.42773239	     -4.71776796	      0.00000000	     21.65249679	     -9.53965145	     -6.46896353	    116.04828947	      2.02542474	     -4.86696964	     -9.16458609	      0.00000000
      7.52000000	     -7.49727204	     -3.28156586	     -8.12300240	      2.21813159	      0.95054928	      1.08761505	     29.19549346	      8.27430522	     -1.50580493	     48.25582467	      0.84222302	     22.42937661	     -4.69728059	      0.00000000	     24.35129310	     -9.64840303	     -5.66739051	    117.09375871	      2.04367162	     -4.33623426	     -8.74070269	      0.00000000
      7.52666667	     -7.80176690	     -3.26001395	     -7.71786811	      2.21681025	      0.94978676	      1.08699721	     27.47254954	      7.82106619	     -1.72779688	     48.19734963	      0.84120244	     24.39728039	     -3.68984488	      0.00000000	     27.74377570	     -9.82827916	     -4.58164891	    117.93315627	      2.05832187	     -3.20234359	     -7.09087518	      0.00000000
      7.53333333	     -7.91539054	     -2.96703528	     -7.45122646	      2.21606443	      0.95002421	      1.08651056	     25.29918055	      7.17386449	     -1.63346031	     47.68420849	      0.83224644	     25.96438323	     -2.80866389	      0.00000000	     30.70994904	     -9.62876444	     -3.92367043	    118.15361135	      2.06216954	     -2.36366823	     -6.18536397	      0.00000000
      7.54000000	     -8.07445500	     -2.44090562	     -7.56014249	      2.21556359	      0.95097767	      1.08663152	     22.99506177	      6.52708826	     -0.99338409	     46.74493393	      0.81585301	     26.75392475	     -2.46603521	      0.00000000	     33.44989035	     -9.38738666	     -3.88864118	    117.81278616	      2.05622102	     -1.87340086	     -5.94448763	      0.00000000
      7.54666667	     -7.81591717	     -2.32228857	     -6.87925714	      2.21647780	      0.95290256	      1.08574897	     19.86347235	      5.65598906	     -1.86297976	     45.27751622	      0.79024174	     27.71557994	     -0.62320427	      0.00000000	     35.64986647	     -9.03316218	     -3.15013270	    117.14784068	      2.04461553	     -0.66442476	     -4.73267288	      0.00000000
      7.55333333	     -7.68324740	     -1.84312589	     -6.52751075	      2.21764151	      0.95525630	      1.08541726	     16.79425648	      4.71963903	     -2.09212731	     43.53015067	      0.75974445	     27.93918003	      0.35394545	      0.00000000	     37.67457420	     -8.48986054	     -3.05861112	    115.97297775	      2.02411031	      0.14755830	     -4.25770311	      0.00000000
      7.56000000	     -7.46663855	     -1.24697805	     -6.17297771	      2.21939514	      0.95820520	      1.08508149	     13.50020942	      3.62676279	     -2.48244539	     41.46598329	      0.72371794	     27.80945470	      1.53651876	      0.00000000	     39.34194602	     -7.80146183	     -3.19951427	    114.37344709	      1.99619323	      0.99381187	     -4.00643490	      0.00000000
      7.56666667	     -7.22399321	     -0.60339679	     -5.85256006	      2.22163492	      0.96156505	      1.08487047	     10.09309805	      2.49746635	     -2.99640137	     39.15860740	      0.68344663	     27.25705481	      3.00704739	      0.00000000	     40.71075946	     -7.11312586	     -3.54486701	    112.40718936	      1.96187556	      1.73901055	     -3.99155652	      0.00000000
      7.57333333	     -7.11351081	      0.16869371	     -5.51555383	      2.22425691	      0.96507070	      1.08458041	      6.80371454	      1.26878411	     -3.62014369	     36.68347551	      0.64024743	     26.05331753	      4.31691971	      0.00000000	     41.99692488	     -6.26322182	     -4.03546351	    110.11512664	      1.92187152	      2.47648154	     -4.01179915	      0.00000000
      7.58000000	     -7.02966281	      0.94169745	     -5.16088180	      2.22719629	      0.96887208	      1.08427259	      3.48798794	      0.11047507	     -4.30849696	     33.96654891	      0.59282811	     24.10815307	      5.45766452	      0.00000000	     43.09682807	     -5.38893908	     -4.58237008	    107.51382871	      1.87647030	      3.09213719	     -4.20161285	      0.00000000
      7.58666667	     -7.04729019	      1.72620721	     -4.78115127	      2.23033229	      0.97279942	      1.08384266	      0.28217854	     -0.97209731	     -5.01617452	     31.09488681	      0.54270816	     21.40252225	      6.36406987	      0.00000000	     44.11910186	     -4.44802568	     -5.13781950	    104.64209481	      1.82634909	      3.63365826	     -4.44683759	      0.00000000
      7.59333333	     -7.11628660	      2.46059346	     -4.41482578	      2.23361125	      0.97682510	      1.08338516	     -2.84737171	     -1.91103787	     -5.69423778	     28.09994227	      0.49043651	     17.99571149	      7.05774690	      0.00000000	     45.00414755	     -3.53326072	     -5.67755722	    101.52400691	      1.77192819	      4.11629466	     -4.66951261	      0.00000000
      7.60000000	     -7.78440561	      3.25566464	     -4.09436564	      2.23661972	      0.98010688	      1.08274348	     -5.05496063	     -2.90020659	     -6.50014689	     25.46534329	      0.44445409	     14.03141339	      7.70387231	      0.00000000	     46.43226356	     -2.57137725	     -6.24878589	     98.21441938	      1.71416499	      4.49002679	     -4.91313519	      0.00000000
      7.60666667	     -7.60580627	      3.76316502	     -3.62411758	      2.24023388	      0.98469287	      1.08201403	     -8.46391663	     -3.38116319	     -6.98123680	     22.14950667	      0.38658182	      9.56555655	      7.78989084	      0.00000000	     46.67595219	     -1.65979404	     -6.51733181	     94.60488585	      1.65116675	      4.85405252	     -5.20114636	      0.00000000
